HIERARCHY
ROOT Hips
{
 OFFSET 0.000000 0.000000 0.000000
 CHANNELS 6 Xposition Yposition Zposition Yrotation Xrotation Zrotation
 JOINT Chest
 {
  OFFSET 0.000000 9.585900 0.002600
  CHANNELS 3 Yrotation Xrotation Zrotation
  JOINT Chest2
  {
   OFFSET 0.000000 9.601200 -0.005300
   CHANNELS 3 Yrotation Xrotation Zrotation
   JOINT Chest3
   {
    OFFSET 0.000000 9.561800 0.000000
    CHANNELS 3 Yrotation Xrotation Zrotation
    JOINT Chest4
    {
     OFFSET 0.000000 9.552100 0.000000
     CHANNELS 3 Yrotation Xrotation Zrotation
     JOINT Neck
     {
      OFFSET 0.000000 14.453000 0.000000
      CHANNELS 3 Yrotation Xrotation Zrotation
      JOINT Head
      {
       OFFSET 0.000000 8.936500 -0.011300
       CHANNELS 3 Yrotation Xrotation Zrotation
       End Site
       {
        OFFSET 0.000000 17.073600 -0.006000
       }
      }
     }
     JOINT RightCollar
     {
      OFFSET -2.921100 9.558500 0.000000
      CHANNELS 3 Yrotation Xrotation Zrotation
      JOINT RightShoulder
      {
       OFFSET -13.519700 0.000000 0.000000
       CHANNELS 3 Yrotation Xrotation Zrotation
       JOINT RightElbow
       {
        OFFSET 0.000000 -29.696600 0.000000
        CHANNELS 3 Yrotation Xrotation Zrotation
        JOINT RightWrist
        {
         OFFSET 0.000000 -24.004700 0.000000
         CHANNELS 3 Yrotation Xrotation Zrotation
         End Site
         {
          OFFSET 0.000000 -17.728500 0.000000
         }
        }
       }
      }
     }
     JOINT LeftCollar
     {
      OFFSET 2.921100 9.558500 0.000000
      CHANNELS 3 Yrotation Xrotation Zrotation
      JOINT LeftShoulder
      {
       OFFSET 13.519700 0.000000 0.000000
       CHANNELS 3 Yrotation Xrotation Zrotation
       JOINT LeftElbow
       {
        OFFSET 0.000000 -29.696600 0.000000
        CHANNELS 3 Yrotation Xrotation Zrotation
        JOINT LeftWrist
        {
         OFFSET 0.000000 -24.004700 0.000000
         CHANNELS 3 Yrotation Xrotation Zrotation
         End Site
         {
          OFFSET 0.000000 -17.728500 0.000000
         }
        }
       }
      }
     }
    }
   }
  }
 }
 JOINT RightHip
 {
  OFFSET -7.771700 -0.012900 -0.001300
  CHANNELS 3 Yrotation Xrotation Zrotation
  JOINT RightKnee
  {
   OFFSET 0.000000 -40.869800 0.001200
   CHANNELS 3 Yrotation Xrotation Zrotation
   JOINT RightAnkle
   {
    OFFSET 0.000000 -39.717900 0.002100
    CHANNELS 3 Yrotation Xrotation Zrotation
    JOINT RightToe
    {
     OFFSET 0.000000 -4.965400 11.033500
     CHANNELS 3 Yrotation Xrotation Zrotation
     End Site
     {
      OFFSET 0.000000 -1.423100 5.872300
     }
    }
   }
  }
 }
 JOINT LeftHip
 {
  OFFSET 7.771700 -0.012900 -0.001300
  CHANNELS 3 Yrotation Xrotation Zrotation
  JOINT LeftKnee
  {
   OFFSET 0.000000 -40.869800 0.001200
   CHANNELS 3 Yrotation Xrotation Zrotation
   JOINT LeftAnkle
   {
    OFFSET 0.000000 -39.717900 0.002100
    CHANNELS 3 Yrotation Xrotation Zrotation
    JOINT LeftToe
    {
     OFFSET 0.000000 -4.965400 11.033500
     CHANNELS 3 Yrotation Xrotation Zrotation
     End Site
     {
      OFFSET 0.000000 -1.423100 5.872300
     }
    }
   }
  }
 }
}
MOTION
Frames: 16
Frame Time: 0.008333
0.000000 85.388000 0.000000 0.000000 -5.767877 0.000000 0.000000 11.653817 0.000000 0.000000 -5.885947 0.000000 0.000000 -0.000000 0.000000 0.000000 -0.000000 0.000000 0.000000 12.528835 0.000000 0.000000 0.711642 0.000000 0.000000 -0.000000 0.000000 0.000000 0.000000 -90.000000 0.000000 -2.309062 0.000000 0.000000 2.309062 0.000000 0.000000 -0.000000 0.000000 0.000000 -0.000000 90.000000 0.000000 -2.309062 0.000000 0.000000 2.309062 0.000000 0.000000 8.520406 0.000000 0.000000 1.905762 0.000000 -0.000000 -4.658285 0.000000 0.000000 -0.000000 0.000000 0.000000 8.520406 0.000000 0.000000 1.905762 0.000000 -0.000000 -4.658285 0.000000 0.000000 -0.000000 0.000000
-223.694410 57.790609 25.034338 174.704541 -50.098383 -3.249191 4.891087 21.900211 3.265596 2.530567 12.604410 1.616146 3.222088 15.637789 2.159803 2.524262 12.614994 1.608147 -2.777928 13.532466 5.987078 -7.580349 -10.112256 12.384143 2.485043 2.631570 2.108646 3.714635 -18.468571 -12.051004 -36.355802 -21.625458 100.450230 -14.964495 -7.962914 -40.342950 -10.255366 0.142632 -1.200549 -4.118151 -19.206195 16.746611 26.176867 -23.044461 -91.907580 22.849486 -10.340500 30.158534 5.797318 -21.921285 -1.134796 -41.685638 72.849608 -44.704577 4.396104 -13.423101 11.639114 -0.026171 -0.131651 -0.000635 -8.430905 -20.717010 8.206631 59.671990 77.792880 58.909811 6.347107 -15.008038 -19.809315 0.074761 0.097218 0.024921
-223.696308 57.787117 25.037288 174.731350 -50.042079 -3.280127 4.887369 21.883943 3.261465 2.532599 12.614325 1.615915 3.226397 15.635994 2.152256 2.526156 12.626476 1.609331 -2.629630 13.561345 6.103832 -7.342559 -10.064475 12.543316 2.513147 2.645296 2.103244 3.743094 -18.435175 -12.080880 -36.124686 -21.438193 100.159523 -15.027082 -8.042159 -40.375824 -10.252287 0.121077 -1.190257 -4.118343 -19.129198 16.829631 25.839727 -22.485987 -91.869850 23.012448 -10.644429 30.265075 5.791182 -21.973846 -1.126116 -41.695983 72.842674 -44.713783 4.387101 -13.426262 11.649957 -0.019449 -0.125031 -0.001925 -8.458323 -20.775577 8.222398 59.703391 77.791834 58.946517 6.355683 -15.014685 -19.817255 0.066891 0.107553 0.027719
-223.698114 57.788956 25.036096 174.791933 -50.020809 -3.339585 4.865613 21.910032 3.266088 2.534314 12.622568 1.616300 3.229175 15.636752 2.143689 2.528581 12.638868 1.612444 -2.485274 13.581692 6.215371 -7.111117 -10.032629 12.695110 2.538275 2.653839 2.090792 3.787454 -18.396527 -12.096733 -35.921772 -21.306684 99.841426 -15.084147 -8.111357 -40.407508 -10.252518 0.066845 -1.169372 -4.101141 -19.024370 16.877035 25.512182 -21.908336 -91.824185 23.166776 -10.919293 30.340261 5.765885 -21.987245 -1.112411 -41.701641 72.836181 -44.714376 4.377688 -13.453736 11.648741 -0.020101 -0.096783 0.007529 -8.504038 -20.795114 8.235693 59.724789 77.788873 58.971942 6.356076 -14.981621 -19.816686 0.054347 0.077858 0.023827
-223.705114 57.789508 25.035577 174.748170 -49.989952 -3.292400 4.897738 21.928230 3.242622 2.537608 12.630180 1.617454 3.228485 15.643588 2.136478 2.534447 12.648218 1.615528 -2.344411 13.596811 6.321840 -6.884925 -10.010577 12.839371 2.554309 2.645348 2.080747 3.852341 -18.340074 -12.107077 -35.741672 -21.220773 99.493451 -15.142746 -8.171276 -40.435815 -10.253813 0.044819 -1.175399 -4.089879 -18.950773 16.935342 25.195790 -21.325301 -91.759299 23.311881 -11.151907 30.382332 5.820248 -22.012775 -1.129964 -41.649227 72.833799 -44.671927 4.376776 -13.417226 11.674462 -0.043336 -0.127111 -0.002333 -8.474169 -20.830561 8.221831 59.735177 77.784992 58.983750 6.341649 -15.004977 -19.824993 0.077589 0.096498 0.035399
-223.707946 57.787651 25.038319 174.824029 -49.930034 -3.366578 4.878041 21.971102 3.250511 2.531196 12.587641 1.621527 3.229997 15.649672 2.135363 2.538037 12.660483 1.615740 -2.205859 13.610968 6.424598 -6.661956 -9.990481 12.977742 2.565410 2.638548 2.069336 3.930352 -18.285471 -12.109358 -35.575689 -21.168479 99.118864 -15.204836 -8.230137 -40.462495 -10.242084 0.091197 -1.198215 -4.095564 -18.943125 16.999352 24.873263 -20.733211 -91.655912 23.445484 -11.347904 30.370561 5.806534 -22.062132 -1.123683 -41.659736 72.822798 -44.661328 4.346909 -13.443898 11.690102 -0.035342 -0.092362 -0.002776 -8.533108 -20.889160 8.244696 59.744943 77.783669 58.996864 6.351959 -14.981420 -19.820256 0.060051 0.080335 0.028460
-223.713079 57.788909 25.038504 174.846368 -49.893406 -3.386902 4.869299 21.961317 3.249275 2.539507 12.624352 1.619232 3.241513 15.714040 2.130996 2.535859 12.615655 1.620673 -2.070181 13.627511 6.524749 -6.443212 -9.966053 13.112046 2.564487 2.592114 2.065011 4.023558 -18.192442 -12.110156 -35.416524 -21.134350 98.725147 -15.268011 -8.289171 -40.489819 -10.233823 0.081367 -1.187179 -4.074406 -18.881039 17.007607 24.496028 -20.106965 -91.455459 23.549861 -11.532194 30.246922 5.815973 -22.087528 -1.125881 -41.650784 72.814294 -44.644768 4.335772 -13.447254 11.696589 -0.033717 -0.087449 0.000204 -8.548603 -20.928628 8.249432 59.760261 77.782369 59.016727 6.350570 -14.977980 -19.821282 0.051098 0.078679 0.029386
-223.718197 57.790542 25.038798 174.866110 -49.856502 -3.406643 4.863529 21.951921 3.250056 2.540950 12.629219 1.619786 3.254951 15.778241 2.128669 2.537267 12.605808 1.621786 -1.937749 13.649901 6.623024 -6.229033 -9.930772 13.243400 2.571743 2.610855 2.052830 4.107283 -18.168449 -12.098375 -35.263495 -21.105355 98.316194 -15.333934 -8.339782 -40.513221 -10.221098 0.074767 -1.168691 -4.042604 -18.820821 16.992971 24.022344 -19.444125 -91.088712 23.629352 -11.709168 29.954320 5.819393 -22.112839 -1.125143 -41.636119 72.805784 -44.626045 4.330589 -13.454187 11.700625 -0.032835 -0.081334 0.002097 -8.564104 -20.967188 8.256217 59.752291 77.788338 59.012422 6.357487 -14.975274 -19.821460 0.054361 0.076856 0.028632
-223.723445 57.791903 25.039642 174.879662 -49.815099 -3.421418 4.869360 21.965878 3.250786 2.537130 12.605928 1.621825 3.264756 15.824231 2.127503 2.540934 12.614672 1.621530 -1.805973 13.681783 6.719555 -6.014130 -9.878107 13.370716 2.578400 2.634910 2.042797 4.187863 -18.152560 -12.081002 -35.107101 -21.073309 97.891521 -15.410594 -8.385523 -40.522920 -10.202750 0.074189 -1.147889 -4.001946 -18.761961 16.960169 23.474537 -18.766783 -90.570964 23.708366 -11.857155 29.522969 5.821574 -22.145325 -1.125114 -41.616515 72.799246 -44.604476 4.329576 -13.461521 11.698598 -0.034519 -0.074389 0.008136 -8.575225 -21.010677 8.265999 59.737110 77.801043 58.997942 6.364294 -14.976264 -19.817173 0.057489 0.075191 0.027805
-223.729481 57.794746 25.039334 174.885050 -49.784112 -3.424031 4.889670 22.038054 3.246176 2.543819 12.619710 1.622734 3.259618 15.782805 2.129027 2.537114 12.580375 1.622410 -1.668521 13.768648 6.810821 -5.794172 -9.802369 13.493464 2.587766 2.683383 2.038167 4.259344 -18.118204 -12.061590 -34.927900 -21.031575 97.453163 -15.505319 -8.438187 -40.511161 -10.173524 0.119650 -1.138106 -3.955458 -18.701713 16.912355 22.911685 -18.060795 -89.999084 23.766144 -11.968983 29.058609 5.822258 -22.172222 -1.129831 -41.589907 72.797171 -44.584511 4.327532 -13.455896 11.703581 -0.037465 -0.078100 0.010077 -8.575643 -21.045183 8.269892 59.742752 77.803177 58.996780 6.367256 -14.969758 -19.807738 0.053771 0.069968 0.027604
-223.735097 57.797661 25.039178 174.896197 -49.752590 -3.432389 4.883680 22.022110 3.242992 2.560996 12.685380 1.622417 3.260201 15.774198 2.130226 2.528544 12.549770 1.621882 -1.526864 13.866449 6.902953 -5.573430 -9.698075 13.614293 2.599020 2.729909 2.039182 4.306683 -18.082842 -12.038231 -34.713023 -20.965159 97.008639 -15.612741 -8.495194 -40.472713 -10.139946 0.165454 -1.126660 -3.893364 -18.641673 16.848123 22.348289 -17.306154 -89.427151 23.783665 -12.063296 28.616625 5.831111 -22.196944 -1.134803 -41.575020 72.792310 -44.565353 4.311566 -13.450815 11.710849 -0.039403 -0.080201 0.007889 -8.578100 -21.080901 8.275957 59.743437 77.805651 58.996357 6.363785 -14.962087 -19.800818 0.060892 0.062277 0.028302
-223.739568 57.797157 25.042223 174.924213 -49.693124 -3.460713 4.881501 22.019513 3.250868 2.565071 12.686893 1.622315 3.253791 15.750160 2.130395 2.552568 12.648592 1.622251 -1.405266 13.881558 7.002629 -5.355661 -9.561442 13.734634 2.586478 2.681157 2.044872 4.322249 -18.048332 -12.009023 -34.460397 -20.856422 96.563747 -15.721779 -8.544935 -40.397813 -10.128956 0.121515 -1.093575 -3.799895 -18.587193 16.767568 21.758161 -16.551067 -88.843207 23.831327 -12.155160 28.184246 5.824441 -22.248533 -1.133226 -41.559341 72.786810 -44.546478 4.306474 -13.451439 11.712105 -0.043393 -0.079182 0.009846 -8.595072 -21.144456 8.294201 59.742275 77.810387 58.999746 6.370860 -14.961872 -19.800793 0.057659 0.065644 0.031416
-223.743223 57.800495 25.042086 174.938209 -49.665170 -3.480353 4.894946 22.043123 3.263694 2.564998 12.688119 1.624174 3.250344 15.728246 2.130009 2.569385 12.697348 1.625760 -1.280389 13.957651 7.098448 -5.135751 -9.394191 13.851276 2.579083 2.683863 2.049378 4.298215 -18.021652 -11.969478 -34.154900 -20.689967 96.111034 -15.819150 -8.599315 -40.268221 -10.114038 0.126622 -1.072738 -3.668640 -18.541410 16.670562 21.133020 -15.839092 -88.257635 23.966446 -12.256278 27.776534 5.822464 -22.270423 -1.125198 -41.555465 72.780767 -44.537877 4.302966 -13.447560 11.711341 -0.029647 -0.083359 0.006282 -8.597383 -21.175990 8.310468 59.731454 77.816175 58.995674 6.370165 -14.953065 -19.799582 0.056382 0.057896 0.034936
-223.748263 57.801984 25.043223 174.953701 -49.624408 -3.493038 4.897354 22.051236 3.264498 2.568513 12.691027 1.626567 3.255551 15.734482 2.131464 2.562605 12.668569 1.627425 -1.140866 14.093528 7.190123 -4.910171 -9.203614 13.962717 2.588239 2.738793 2.049259 4.228957 -18.007291 -11.915910 -33.756655 -20.438937 95.617901 -15.880182 -8.681732 -40.052400 -10.085300 0.177737 -1.064213 -3.502734 -18.504624 16.556003 20.488721 -15.139798 -87.709996 24.144311 -12.379329 27.441692 5.826135 -22.303853 -1.121515 -41.572972 72.768608 -44.548517 4.287078 -13.446203 11.712423 -0.013871 -0.081056 0.008807 -8.605292 -21.218879 8.322443 59.767112 77.803117 59.016387 6.347351 -14.954408 -19.779473 0.043763 0.060665 0.031553
-223.753630 57.798966 25.048093 174.979521 -49.549074 -3.513921 4.889987 22.025960 3.263508 2.572603 12.691248 1.627594 3.258315 15.739686 2.136979 2.570799 12.682600 1.627664 -1.013141 14.194423 7.280438 -4.682393 -8.997160 14.071048 2.584000 2.753972 2.043844 4.121923 -18.005874 -11.849521 -33.233714 -20.083513 95.049955 -15.896653 -8.801151 -39.723042 -10.071659 0.184470 -1.048704 -3.312060 -18.476926 16.425646 19.855463 -14.427907 -87.218951 24.315572 -12.515787 27.212339 5.812285 -22.373995 -1.124398 -41.577328 72.758551 -44.557892 4.285240 -13.446769 11.715589 -0.012511 -0.077274 0.012887 -8.624320 -21.298100 8.339297 59.786435 77.802698 59.026293 6.342668 -14.962721 -19.768174 0.035091 0.070364 0.027639
-223.758950 57.801401 25.048158 174.989207 -49.518504 -3.521354 4.914863 22.085894 3.269616 2.562820 12.645318 1.630209 3.260796 15.747205 2.137464 2.581714 12.692449 1.631239 -0.887308 14.301823 7.369547 -4.457422 -8.779489 14.175399 2.576067 2.770800 2.038607 3.994240 -18.014085 -11.777071 -32.612693 -19.624007 94.412938 -15.878046 -8.933520 -39.294833 -10.062245 0.190015 -1.031757 -3.110900 -18.457390 16.281515 19.274656 -13.752555 -86.781727 24.482754 -12.632427 27.091547 5.807156 -22.400405 -1.126085 -41.561781 72.755006 -44.546705 4.280682 -13.440495 11.715703 -0.010255 -0.081252 0.016162 -8.613263 -21.336508 8.343034 59.791017 77.806883 59.038061 6.332498 -14.957986 -19.756115 0.035436 0.063230 0.026085
